<svg width="75" height="75" viewBox="0 0 75 75" fill="none" xmlns="http://www.w3.org/2000/svg">
<circle cx="37.5" cy="37.5" r="37.5" fill="#394236"/>
<path d="M33.492 45.312C35.796 43.392 37.632 41.796 39 40.524C40.368 39.228 41.508 37.884 42.42 36.492C43.332 35.1 43.788 33.732 43.788 32.388C43.788 31.164 43.5 30.204 42.924 29.508C42.348 28.812 41.46 28.464 40.26 28.464C39.06 28.464 38.136 28.872 37.488 29.688C36.84 30.48 36.504 31.572 36.48 32.964H31.584C31.68 30.084 32.532 27.9 34.14 26.412C35.772 24.924 37.836 24.18 40.332 24.18C43.068 24.18 45.168 24.912 46.632 26.376C48.096 27.816 48.828 29.724 48.828 32.1C48.828 33.972 48.324 35.76 47.316 37.464C46.308 39.168 45.156 40.656 43.86 41.928C42.564 43.176 40.872 44.688 38.784 46.464H49.404V50.64H31.62V46.896L33.492 45.312Z" fill="white"/>
</svg>
