<svg width="75" height="75" viewBox="0 0 75 75" fill="none" xmlns="http://www.w3.org/2000/svg">
<circle cx="37.5" cy="37.5" r="37.5" fill="#394236"/>
<path d="M31.98 31.668C32.1 29.268 32.94 27.42 34.5 26.124C36.084 24.804 38.16 24.144 40.728 24.144C42.48 24.144 43.98 24.456 45.228 25.08C46.476 25.68 47.412 26.508 48.036 27.564C48.684 28.596 49.008 29.772 49.008 31.092C49.008 32.604 48.612 33.888 47.82 34.944C47.052 35.976 46.128 36.672 45.048 37.032V37.176C46.44 37.608 47.52 38.376 48.288 39.48C49.08 40.584 49.476 42 49.476 43.728C49.476 45.168 49.14 46.452 48.468 47.58C47.82 48.708 46.848 49.596 45.552 50.244C44.28 50.868 42.744 51.18 40.944 51.18C38.232 51.18 36.024 50.496 34.32 49.128C32.616 47.76 31.716 45.744 31.62 43.08H36.516C36.564 44.256 36.96 45.204 37.704 45.924C38.472 46.62 39.516 46.968 40.836 46.968C42.06 46.968 42.996 46.632 43.644 45.96C44.316 45.264 44.652 44.376 44.652 43.296C44.652 41.856 44.196 40.824 43.284 40.2C42.372 39.576 40.956 39.264 39.036 39.264H37.992V35.124H39.036C42.444 35.124 44.148 33.984 44.148 31.704C44.148 30.672 43.836 29.868 43.212 29.292C42.612 28.716 41.736 28.428 40.584 28.428C39.456 28.428 38.58 28.74 37.956 29.364C37.356 29.964 37.008 30.732 36.912 31.668H31.98Z" fill="white"/>
</svg>
